<svg width="26" height="26" viewBox="0 0 26 26" fill="none" xmlns="http://www.w3.org/2000/svg">
<path d="M8.85485 14.6775C9.10735 14.1725 9.24985 13.6025 9.24985 13C9.24985 12.3975 9.10735 11.8275 8.85485 11.3225M8.85485 14.6775C8.47698 15.4329 7.85511 16.0387 7.08997 16.3967C6.32484 16.7546 5.46127 16.8437 4.63916 16.6496C3.81705 16.4555 3.08457 15.9894 2.56037 15.327C2.03618 14.6647 1.75098 13.8447 1.75098 13C1.75098 12.1552 2.03618 11.3353 2.56037 10.6729C3.08457 10.0105 3.81705 9.54447 4.63916 9.35033C5.46127 9.1562 6.32484 9.24532 7.08997 9.60326C7.85511 9.96119 8.47698 10.567 8.85485 11.3225M8.85485 14.6775L17.1449 18.8225M8.85485 11.3225L17.1449 7.17746M17.1449 18.8225C16.7 19.7123 16.6267 20.7424 16.9413 21.6861C17.2559 22.6299 17.9326 23.4101 18.8224 23.855C19.7122 24.2999 20.7422 24.3731 21.686 24.0585C22.6298 23.7439 23.41 23.0673 23.8549 22.1775C24.2998 21.2877 24.373 20.2576 24.0584 19.3138C23.7438 18.37 23.0672 17.5899 22.1774 17.145C21.7368 16.9247 21.2571 16.7933 20.7658 16.7584C20.2744 16.7235 19.781 16.7857 19.3137 16.9414C18.3699 17.256 17.5898 17.9327 17.1449 18.8225ZM17.1449 7.17746C17.3651 7.61796 17.67 8.01076 18.0421 8.33343C18.4142 8.6561 18.8462 8.90232 19.3135 9.05803C19.7808 9.21375 20.2741 9.2759 20.7654 9.24095C21.2566 9.206 21.7362 9.07463 22.1767 8.85434C22.6172 8.63404 23.01 8.32914 23.3327 7.95705C23.6554 7.58495 23.9016 7.15294 24.0573 6.68569C24.213 6.21844 24.2752 5.72509 24.2402 5.23382C24.2053 4.74254 24.0739 4.26296 23.8536 3.82246C23.4087 2.93282 22.6286 2.25636 21.685 1.94189C20.7413 1.62741 19.7114 1.70068 18.8217 2.14558C17.9321 2.59049 17.2556 3.37057 16.9412 4.31423C16.6267 5.25789 16.7 6.28782 17.1449 7.17746Z" stroke="white" stroke-width="2" stroke-linecap="round" stroke-linejoin="round"/>
</svg>
