<svg width="20" height="26" viewBox="0 0 20 26" fill="none" xmlns="http://www.w3.org/2000/svg">
<path d="M6.25 15.5L13.75 8M6.875 8.625H6.8875M13.125 14.875H13.1375M18.75 24.25V4.25C18.75 3.58696 18.4866 2.95107 18.0178 2.48223C17.5489 2.01339 16.913 1.75 16.25 1.75H3.75C3.08696 1.75 2.45107 2.01339 1.98223 2.48223C1.51339 2.95107 1.25 3.58696 1.25 4.25V24.25L5.625 21.75L10 24.25L14.375 21.75L18.75 24.25ZM7.5 8.625C7.5 8.79076 7.43415 8.94973 7.31694 9.06694C7.19973 9.18415 7.04076 9.25 6.875 9.25C6.70924 9.25 6.55027 9.18415 6.43306 9.06694C6.31585 8.94973 6.25 8.79076 6.25 8.625C6.25 8.45924 6.31585 8.30027 6.43306 8.18306C6.55027 8.06585 6.70924 8 6.875 8C7.04076 8 7.19973 8.06585 7.31694 8.18306C7.43415 8.30027 7.5 8.45924 7.5 8.625ZM13.75 14.875C13.75 15.0408 13.6842 15.1997 13.5669 15.3169C13.4497 15.4342 13.2908 15.5 13.125 15.5C12.9592 15.5 12.8003 15.4342 12.6831 15.3169C12.5658 15.1997 12.5 15.0408 12.5 14.875C12.5 14.7092 12.5658 14.5503 12.6831 14.4331C12.8003 14.3158 12.9592 14.25 13.125 14.25C13.2908 14.25 13.4497 14.3158 13.5669 14.4331C13.6842 14.5503 13.75 14.7092 13.75 14.875Z" stroke="white" stroke-width="2" stroke-linecap="round" stroke-linejoin="round"/>
</svg>
