<svg width="20" height="26" viewBox="0 0 20 26" fill="none" xmlns="http://www.w3.org/2000/svg">
<path d="M6.25 13H13.75M6.25 18H13.75M16.25 24.25H3.75C3.08696 24.25 2.45107 23.9866 1.98223 23.5178C1.51339 23.0489 1.25 22.413 1.25 21.75V4.25C1.25 3.58696 1.51339 2.95107 1.98223 2.48223C2.45107 2.01339 3.08696 1.75 3.75 1.75H10.7325C11.064 1.75007 11.3819 1.88181 11.6163 2.11625L18.3838 8.88375C18.6182 9.11812 18.7499 9.43601 18.75 9.7675V21.75C18.75 22.413 18.4866 23.0489 18.0178 23.5178C17.5489 23.9866 16.913 24.25 16.25 24.25Z" stroke="white" stroke-width="2" stroke-linecap="round" stroke-linejoin="round"/>
</svg>
