<svg width="26" height="26" viewBox="0 0 26 26" fill="none" xmlns="http://www.w3.org/2000/svg">
<path d="M2.48223 2.48223C2.01339 2.95107 1.75 3.58696 1.75 4.25V5.5C1.75 15.855 10.145 24.25 20.5 24.25H21.75C22.413 24.25 23.0489 23.9866 23.5178 23.5178C23.9866 23.0489 24.25 22.413 24.25 21.75V17.6512C24.2501 17.3888 24.1675 17.133 24.0141 16.9201C23.8606 16.7071 23.644 16.5479 23.395 16.465L17.7787 14.5925C17.4933 14.4976 17.1833 14.5088 16.9054 14.6241C16.6276 14.7394 16.4007 14.9509 16.2662 15.22L14.8538 18.0413C11.7931 16.6584 9.34165 14.2069 7.95875 11.1462L10.78 9.73375C11.0491 9.59932 11.2606 9.37237 11.3759 9.09456C11.4912 8.81674 11.5024 8.50667 11.4075 8.22125L9.535 2.605C9.45213 2.3562 9.29311 2.13975 9.08045 1.98631C8.86778 1.83287 8.61224 1.7502 8.35 1.75H4.25C3.58696 1.75 2.95107 2.01339 2.48223 2.48223Z" stroke="#9CD388" stroke-width="2" stroke-linecap="round" stroke-linejoin="round"/>
</svg>
