<svg width="280" height="40" viewBox="0 0 280 40" fill="none" xmlns="http://www.w3.org/2000/svg">
<path fill-rule="evenodd" clip-rule="evenodd" d="M56.6136 24.7599H62.3144C66.9047 24.7599 70.2765 23.7066 72.4751 21.8967C74.6271 20.125 75.8547 17.4643 75.8547 13.7669V13.5501C75.8547 9.74347 74.7268 6.98273 72.5906 5.14039C70.4137 3.263 66.9433 2.12359 61.8266 2.12359H48.6114V37.8222H56.6136V24.7599ZM56.6136 20.2266V7.4157H61.393C63.2822 7.4157 65.0543 7.77703 66.3696 8.85058C67.7478 9.9754 68.3404 11.6416 68.3404 13.6043V13.8211C68.3404 15.7274 67.765 17.4151 66.4326 18.6005C65.1312 19.7584 63.341 20.2266 61.3388 20.2266H56.6136ZM91.9709 32.3133V22.2124H104.491V17.3539H91.9709V7.6325H107.689V2.12359H83.9688V37.8222H108.556V32.3133H91.9709ZM123.857 9.3444L140.299 37.6423C140.3 37.6439 140.301 37.6454 140.302 37.6469C140.358 37.7353 140.512 37.8222 140.615 37.8222H148.735V2.12359H142.088V28.2264L127.376 2.29561C127.318 2.20838 127.167 2.12359 127.065 2.12359H117.156V37.8222H123.857V9.3444ZM138.989 38.4282L125.385 15.0135V38.2656C125.385 38.916 124.951 39.3496 124.301 39.3496H116.713C116.062 39.3496 115.629 38.916 115.629 38.2656V1.68021C115.629 1.02981 116.062 0.596204 116.713 0.596204H127.065C127.715 0.596204 128.366 0.975609 128.691 1.51761L140.561 22.439V1.68021C140.561 1.02981 140.995 0.596204 141.645 0.596204H149.179C149.829 0.596204 150.263 1.02981 150.263 1.68021V38.2656C150.263 38.916 149.829 39.3496 149.179 39.3496H140.615C139.965 39.3496 139.314 38.9702 138.989 38.4282ZM34.922 33.3512C38.2033 30.1499 40.1184 25.5481 40.1184 19.9458V19.5122C40.1184 13.8863 38.0897 9.44283 34.7724 6.39589C31.4406 3.33555 26.6946 1.58159 21.1038 1.58159C10.2595 1.58159 2.14336 8.89727 2.14336 19.7832V20.2168C2.14336 25.6955 3.97153 30.2309 7.15929 33.3941C10.3463 36.5565 15.0189 38.4726 20.9412 38.4726C26.8654 38.4726 31.6381 36.555 34.922 33.3512ZM13.496 29.3324C11.6432 27.0865 10.6875 23.9287 10.6875 20.1626V19.729C10.6875 15.9792 11.5948 12.8427 13.4268 10.6151C15.2906 8.3491 17.9692 7.1989 21.1038 7.1989C24.2497 7.1989 26.9353 8.38397 28.8054 10.646C30.6472 12.8739 31.5742 15.9932 31.5742 19.6748V20.1084C31.5742 23.8091 30.6649 26.9737 28.8484 29.2463C27.0004 31.5584 24.3259 32.8011 21.158 32.8011C18.0583 32.8011 15.3753 31.6103 13.496 29.3324ZM41.6458 19.9458C41.6458 31.8699 33.4615 40 20.9412 40C8.42084 40 0.615967 31.8699 0.615967 20.2168V19.7832C0.615967 7.96748 9.50485 0.0541992 21.1038 0.0541992C32.9195 0.0541992 41.6458 7.47968 41.6458 19.5122V19.9458ZM12.2149 20.1626C12.2149 27.2087 15.7921 31.2737 21.158 31.2737C26.6322 31.2737 30.0469 27.0461 30.0469 20.1084V19.6748C30.0469 12.7913 26.578 8.72629 21.1038 8.72629C15.6295 8.72629 12.2149 12.6829 12.2149 19.729V20.1626ZM48.168 39.3496C47.5176 39.3496 47.084 38.916 47.084 38.2656V1.68021C47.084 1.02981 47.5176 0.596204 48.168 0.596204H61.8266C72.4499 0.596204 77.3821 5.31165 77.3821 13.5501V13.7669C77.3821 21.897 71.9079 26.2873 62.3144 26.2873H58.141V38.2656C58.141 38.916 57.7073 39.3496 57.0569 39.3496H48.168ZM58.141 18.6992H61.3388C64.916 18.6992 66.813 17.019 66.813 13.8211V13.6043C66.813 10.2981 64.8618 8.94309 61.393 8.94309H58.141V18.6992ZM82.4414 38.2656C82.4414 38.916 82.875 39.3496 83.5254 39.3496H109C109.65 39.3496 110.084 38.916 110.084 38.2656V31.8699C110.084 31.2195 109.65 30.7859 109 30.7859H93.4983V23.7398H104.935C105.585 23.7398 106.019 23.3062 106.019 22.6558V16.9106C106.019 16.2602 105.585 15.8266 104.935 15.8266H93.4983V9.15989H108.132C108.783 9.15989 109.216 8.72629 109.216 8.07588V1.68021C109.216 1.02981 108.783 0.596204 108.132 0.596204H83.5254C82.875 0.596204 82.4414 1.02981 82.4414 1.68021V38.2656Z" fill="#4DB02A"/>
<path d="M193.094 25.8537C193.202 25.2032 192.769 24.7696 192.118 24.7696H183.229C182.579 24.7696 182.091 25.2032 181.983 25.8537C181.116 29.3767 178.514 31.1111 174.937 31.1111C169.625 31.1111 166.644 27.1545 166.644 20.1626V19.729C166.644 12.6829 169.788 8.78049 174.774 8.78049C178.297 8.78049 180.411 10.5691 181.116 13.8211C181.224 14.4715 181.712 14.9051 182.362 14.9051H191.631C192.281 14.9051 192.66 14.4715 192.606 13.8211C191.305 4.33604 184.422 0 174.72 0C163.392 0 154.937 7.85908 154.937 19.7832V20.2168C154.937 32.0867 161.603 40 175.154 40C184.801 40 191.902 35.1761 193.094 25.8537Z" fill="#5A5A5A"/>
<path d="M198.069 38.2656C198.069 38.916 198.503 39.3496 199.153 39.3496H208.042C208.692 39.3496 209.126 38.916 209.126 38.2656V25.4743H211.728L219.045 38.4282C219.37 38.9702 220.02 39.3496 220.671 39.3496H230.21C230.86 39.3496 231.077 38.9702 230.752 38.4282L222.026 23.3062C226.091 21.7344 229.017 18.645 229.017 13.1165V12.8997C229.017 4.71544 223.381 0.596205 213.245 0.596205H199.153C198.503 0.596205 198.069 1.02981 198.069 1.68021V38.2656ZM209.126 18.2656V8.94309H212.757C216.335 8.94309 218.286 10.1897 218.286 13.3333V13.5501C218.286 16.6938 216.443 18.2656 212.703 18.2656H209.126Z" fill="#5A5A5A"/>
<path d="M235.861 38.2656C235.861 38.916 236.295 39.3496 236.945 39.3496H244.696C245.346 39.3496 245.78 38.916 245.78 38.2656V15.2304L254.777 38.3198C254.994 38.916 255.59 39.3496 256.241 39.3496H257.758C258.409 39.3496 259.005 38.9702 259.222 38.3198L268.327 15.2304V38.2656C268.327 38.916 268.761 39.3496 269.411 39.3496H278.3C278.951 39.3496 279.384 38.916 279.384 38.2656V1.68021C279.384 1.02981 278.951 0.596205 278.3 0.596205H266.268C265.617 0.596205 265.021 0.97561 264.804 1.62601L257.758 21.2466L250.712 1.62601C250.495 0.97561 249.899 0.596205 249.249 0.596205H236.945C236.295 0.596205 235.861 1.02981 235.861 1.68021V38.2656Z" fill="#5A5A5A"/>
</svg>
