<svg width="140" height="20" viewBox="0 0 140 20" fill="none" xmlns="http://www.w3.org/2000/svg">
<path fill-rule="evenodd" clip-rule="evenodd" d="M27.9988 12.3799H30.8492C33.1444 12.3799 34.8302 11.8533 35.9296 10.9483C37.0056 10.0625 37.6194 8.73213 37.6194 6.88347V6.77507C37.6194 4.87173 37.0554 3.49137 35.9873 2.5702C34.8989 1.6315 33.1637 1.0618 30.6053 1.0618H23.9977V18.9111H27.9988V12.3799ZM27.9988 10.1133V3.70785H30.3885C31.3331 3.70785 32.2192 3.88852 32.8768 4.42529C33.5659 4.9877 33.8622 5.8208 33.8622 6.80217V6.91057C33.8622 7.86369 33.5745 8.70753 32.9083 9.30023C32.2576 9.8792 31.3625 10.1133 30.3614 10.1133H27.9988ZM45.6775 16.1566V11.1062H51.9376V8.67697H45.6775V3.81625H53.5366V1.0618H41.6764V18.9111H53.9702V16.1566H45.6775ZM61.6207 4.6722L69.8414 18.8212C69.8419 18.8219 69.8424 18.8227 69.8428 18.8234C69.8711 18.8676 69.9481 18.9111 69.9996 18.9111H74.0597V1.0618H70.7362V14.1132L63.3802 1.14781C63.3511 1.10419 63.2753 1.0618 63.2245 1.0618H58.27V18.9111H61.6207V4.6722ZM69.1866 19.2141L62.3844 7.50677V19.1328C62.3844 19.458 62.1676 19.6748 61.8424 19.6748H58.0484C57.7232 19.6748 57.5063 19.458 57.5063 19.1328V0.840107C57.5063 0.514905 57.7232 0.298102 58.0484 0.298102H63.2245C63.5497 0.298102 63.8749 0.487805 64.0375 0.758807L69.9725 11.2195V0.840107C69.9725 0.514905 70.1893 0.298102 70.5145 0.298102H74.2814C74.6066 0.298102 74.8234 0.514905 74.8234 0.840107V19.1328C74.8234 19.458 74.6066 19.6748 74.2814 19.6748H69.9996C69.6744 19.6748 69.3492 19.4851 69.1866 19.2141ZM17.153 16.6756C18.7937 15.075 19.7512 12.7741 19.7512 9.9729V9.7561C19.7512 6.94317 18.7369 4.72141 17.0782 3.19794C15.4123 1.66778 13.0393 0.790795 10.2439 0.790795C4.82177 0.790795 0.763695 4.44863 0.763695 9.8916V10.1084C0.763695 12.8477 1.67778 15.1155 3.27166 16.6971C4.86516 18.2783 7.20144 19.2363 10.1626 19.2363C13.1247 19.2363 15.5111 18.2775 17.153 16.6756ZM6.44004 14.6662C5.51361 13.5433 5.03576 11.9644 5.03576 10.0813V9.8645C5.03576 7.98958 5.48939 6.42134 6.40543 5.30757C7.3373 4.17455 8.67661 3.59945 10.2439 3.59945C11.8169 3.59945 13.1597 4.19199 14.0947 5.32302C15.0156 6.43696 15.4791 7.99659 15.4791 9.8374V10.0542C15.4791 11.9046 15.0244 13.4868 14.1162 14.6232C13.1922 15.7792 11.855 16.4006 10.271 16.4006C8.72116 16.4006 7.37966 15.8052 6.44004 14.6662ZM20.5149 9.9729C20.5149 15.935 16.4228 20 10.1626 20C3.90244 20 0 15.935 0 10.1084V9.8916C0 3.98374 4.44444 0.0270996 10.2439 0.0270996C16.1518 0.0270996 20.5149 3.73984 20.5149 9.7561V9.9729ZM5.79946 10.0813C5.79946 13.6043 7.58808 15.6369 10.271 15.6369C13.0081 15.6369 14.7154 13.523 14.7154 10.0542V9.8374C14.7154 6.39566 12.981 4.36314 10.2439 4.36314C7.50678 4.36314 5.79946 6.34146 5.79946 9.8645V10.0813ZM23.776 19.6748C23.4508 19.6748 23.234 19.458 23.234 19.1328V0.840107C23.234 0.514905 23.4508 0.298102 23.776 0.298102H30.6053C35.917 0.298102 38.3831 2.65583 38.3831 6.77507V6.88347C38.3831 10.9485 35.646 13.1436 30.8492 13.1436H28.7625V19.1328C28.7625 19.458 28.5457 19.6748 28.2205 19.6748H23.776ZM28.7625 9.34959H30.3614C32.15 9.34959 33.0985 8.50948 33.0985 6.91057V6.80217C33.0985 5.14905 32.1229 4.47154 30.3885 4.47154H28.7625V9.34959ZM40.9127 19.1328C40.9127 19.458 41.1295 19.6748 41.4547 19.6748H54.1919C54.5171 19.6748 54.7339 19.458 54.7339 19.1328V15.935C54.7339 15.6098 54.5171 15.393 54.1919 15.393H46.4412V11.8699H52.1593C52.4845 11.8699 52.7013 11.6531 52.7013 11.3279V8.45528C52.7013 8.13008 52.4845 7.91328 52.1593 7.91328H46.4412V4.57994H53.7583C54.0835 4.57994 54.3003 4.36314 54.3003 4.03794V0.840107C54.3003 0.514905 54.0835 0.298102 53.7583 0.298102H41.4547C41.1295 0.298102 40.9127 0.514905 40.9127 0.840107V19.1328Z" fill="#4DB02A"/>
<path d="M96.2387 12.9268C96.2929 12.6016 96.0761 12.3848 95.7509 12.3848H91.3065C90.9813 12.3848 90.7374 12.6016 90.6832 12.9268C90.2496 14.6883 88.9488 15.5556 87.1602 15.5556C84.5043 15.5556 83.0138 13.5772 83.0138 10.0813V9.8645C83.0138 6.34146 84.5856 4.39024 87.0789 4.39024C88.8404 4.39024 89.8973 5.28455 90.2496 6.91057C90.3038 7.23577 90.5477 7.45257 90.8729 7.45257H95.507C95.8322 7.45257 96.0219 7.23577 95.9948 6.91057C95.3444 2.16802 91.9027 0 87.0518 0C81.3878 0 77.1602 3.92954 77.1602 9.8916V10.1084C77.1602 16.0434 80.4935 20 87.2686 20C92.0924 20 95.6425 17.5881 96.2387 12.9268Z" fill="#BFBFBF"/>
<path d="M98.7263 19.1328C98.7263 19.458 98.9431 19.6748 99.2683 19.6748H103.713C104.038 19.6748 104.255 19.458 104.255 19.1328V12.7371H105.556L109.214 19.2141C109.377 19.4851 109.702 19.6748 110.027 19.6748H114.797C115.122 19.6748 115.23 19.4851 115.068 19.2141L110.705 11.6531C112.737 10.8672 114.201 9.32249 114.201 6.55826V6.44986C114.201 2.35772 111.382 0.298102 106.314 0.298102H99.2683C98.9431 0.298102 98.7263 0.514905 98.7263 0.840107V19.1328ZM104.255 9.13279V4.47154H106.07C107.859 4.47154 108.835 5.09485 108.835 6.66667V6.77507C108.835 8.34688 107.913 9.13279 106.043 9.13279H104.255Z" fill="#BFBFBF"/>
<path d="M117.622 19.1328C117.622 19.458 117.839 19.6748 118.164 19.6748H122.04C122.365 19.6748 122.582 19.458 122.582 19.1328V7.61518L127.08 19.1599C127.189 19.458 127.487 19.6748 127.812 19.6748H128.571C128.896 19.6748 129.194 19.4851 129.303 19.1599L133.855 7.61518V19.1328C133.855 19.458 134.072 19.6748 134.397 19.6748H138.842C139.167 19.6748 139.384 19.458 139.384 19.1328V0.840107C139.384 0.514905 139.167 0.298102 138.842 0.298102H132.826C132.5 0.298102 132.202 0.487805 132.094 0.813007L128.571 10.6233L125.048 0.813007C124.939 0.487805 124.641 0.298102 124.316 0.298102H118.164C117.839 0.298102 117.622 0.514905 117.622 0.840107V19.1328Z" fill="#BFBFBF"/>
</svg>
